PathFileType	4	(X/Y/Z)	C:/Users/opensim2020/Desktop/walking_exp_matlab/subject02_walking10_straight_03.trc	
DataRate	CameraRate	NumFrames	NumMarkers	Units	OrigDataRate	OrigDataStartFrame	OrigNumFrames	
100.00	100.00	5	43	mm	100.00	2426	270	
Frame#	Time	LFHD			RFHD			LBHD			RBHD			C7			T10			CLAV			STRN			RBAK			LSHO			LUPA			LELB			LFRM			LWRA			LWRB			LFIN			RSHO			RUPA			RELB			RFRM			RWRA			RWRB			RFIN			LASI			RASI			LPSI			RPSI			LTHI			LKNE			LTIB			LANK			LHEE			LTOE			RTHI			RKNE			RTIB			RANK			RHEE			RTOE			*39			*40			*41			*42			
		X1	Y1	Z1	X2	Y2	Z2	X3	Y3	Z3	X4	Y4	Z4	X5	Y5	Z5	X6	Y6	Z6	X7	Y7	Z7	X8	Y8	Z8	X9	Y9	Z9	X10	Y10	Z10	X11	Y11	Z11	X12	Y12	Z12	X13	Y13	Z13	X14	Y14	Z14	X15	Y15	Z15	X16	Y16	Z16	X17	Y17	Z17	X18	Y18	Z18	X19	Y19	Z19	X20	Y20	Z20	X21	Y21	Z21	X22	Y22	Z22	X23	Y23	Z23	X24	Y24	Z24	X25	Y25	Z25	X26	Y26	Z26	X27	Y27	Z27	X28	Y28	Z28	X29	Y29	Z29	X30	Y30	Z30	X31	Y31	Z31	X32	Y32	Z32	X33	Y33	Z33	X34	Y34	Z34	X35	Y35	Z35	X36	Y36	Z36	X37	Y37	Z37	X38	Y38	Z38	X39	Y39	Z39	X40	Y40	Z40	X41	Y41	Z41	X42	Y42	Z42	X43	Y43	Z43	

237	2.360	1432.80493	822.65131	1720.01855	1570.20239	856.92883	1701.53943	1460.29407	687.82953	1658.01318	1600.49695	710.35797	1640.05310	1542.44836	643.34210	1517.38452	1551.81934	582.21814	1241.57642	1502.01501	778.07117	1445.24011	1510.24084	827.40552	1273.63831	1620.72363	594.80414	1346.71277	1351.84473	673.48297	1488.24341	1280.82178	604.41742	1299.62451	1273.79858	565.64447	1165.75769	1253.42651	530.55280	1040.84241	1251.60388	552.83423	902.03418	1241.87256	500.53937	921.20679	1228.98743	497.96417	855.16156	1705.87292	760.88983	1485.20618	1798.03870	785.56812	1296.99719	1814.09338	841.21405	1159.51758	1817.37134	911.24036	1059.94177	1778.35938	992.52844	958.78271	1820.99707	959.99786	939.12018	1811.73096	1017.89893	896.91278	1394.00818	811.00757	983.63037	1653.20496	820.27905	965.28778	1483.17737	603.90546	1018.56897	1596.55408	601.59381	1021.02838	1325.87610	814.26941	679.32727	1361.22668	853.48981	481.97046	1366.43933	861.77850	287.77576	1385.49304	946.67181	79.34031	1443.91772	935.08820	45.16643	1341.07214	1096.53662	81.89056	1711.55042	690.46600	667.41803	1674.17908	641.21057	461.25107	1677.19604	543.65833	298.17892	1638.49426	470.31711	117.76357	1581.69226	424.97134	71.96061	1657.07288	607.78131	38.12932	1543.30457	753.88812	1794.89453	-3360.24805	2845.30713	1034.10559						 
238	2.370	1429.93689	829.65942	1719.37964	1567.39905	864.59344	1701.06360	1457.91333	695.04193	1657.18579	1597.82227	717.92120	1639.17603	1540.23962	651.25500	1516.46375	1549.13708	591.00250	1240.45654	1499.36780	786.14642	1444.65540	1507.73853	836.23297	1273.32666	1617.80310	602.99884	1345.31177	1349.42969	681.14807	1487.43652	1279.00391	612.84705	1298.88171	1271.60046	573.25250	1165.20679	1251.07837	537.74902	1040.26001	1248.66882	560.38873	901.39337	1239.44104	508.05859	920.52222	1226.40649	504.70425	854.08325	1703.39954	768.79272	1484.51099	1795.33337	794.00732	1296.42676	1811.25806	849.35596	1158.90808	1813.94910	919.15027	1059.05237	1774.70972	1000.44299	957.92596	1817.30212	967.88885	938.18805	1807.68689	1025.64746	895.81311	1391.62073	821.01947	983.44629	1650.92493	829.43134	964.79395	1479.76123	612.79468	1017.67004	1593.11267	610.81726	1019.74634	1323.65210	823.19202	678.08356	1359.91370	861.15161	480.44891	1366.16870	866.73511	286.04474	1386.91077	947.88867	76.34158	1445.61487	935.81305	42.29502	1342.00354	1097.47742	76.98970	1709.96497	697.78772	667.27734	1673.63770	647.95013	461.24493	1676.54810	547.71985	299.67654	1638.62012	471.71271	120.18726	1582.09094	426.08655	75.03100	1657.48718	608.05560	38.33708	1540.66272	761.17975	1794.22083	-3360.41626	2845.22144	1034.24463						 
239	2.380	1426.96021	836.62537	1718.56116	1564.21399	871.95313	1700.34521	1455.44580	702.21350	1656.24976	1595.23840	725.60608	1638.33069	1537.41064	659.00555	1515.11621	1545.93481	599.77625	1238.74292	1496.75293	794.28662	1444.07275	1505.04639	845.03540	1272.92908	1615.29199	611.46307	1343.95154	1346.97522	688.88251	1486.56543	1276.15381	620.00110	1298.14099	1269.11841	581.14331	1164.39526	1248.55151	545.57605	1039.50977	1245.64209	568.36414	900.78180	1237.05872	515.75537	919.76495	1223.80444	512.50372	853.55731	1700.73279	776.56342	1483.75269	1792.76599	802.42413	1296.01477	1807.98108	857.07825	1157.90417	1810.62183	926.91370	1058.10803	1770.76147	1007.82477	956.76855	1813.63708	975.64124	937.17426	1803.51929	1033.20239	894.51251	1389.04895	831.45276	983.30536	1648.50720	838.88879	964.25922	1476.56860	623.73779	1016.48828	1589.51489	620.35297	1018.40826	1321.41772	831.98663	676.72107	1358.30884	868.39966	478.52667	1365.96912	871.14575	284.09299	1388.02991	948.55280	73.22046	1446.47290	935.97418	39.66608	1342.86975	1098.02026	71.70118	1708.34473	705.43707	667.22876	1673.19836	654.90350	461.21594	1675.98853	552.07318	301.29398	1638.77490	473.13293	122.84059	1582.10022	427.27127	78.38770	1657.79224	608.18152	38.33485	1537.92480	768.41168	1793.35632	-3360.25415	2845.18335	1033.97986						 
240	2.390	1424.06506	843.62750	1717.86243	1563.71521	883.58508	1700.86572	1452.91418	709.34869	1655.18591	1592.86133	733.44470	1637.41638	1534.92810	666.83618	1513.98657	1542.76904	608.83014	1237.30249	1493.98474	802.46155	1443.44495	1502.33984	854.10449	1272.56030	1611.94690	619.71326	1342.24890	1344.50513	696.90210	1485.73108	1273.14587	626.85052	1297.46753	1266.55139	589.19177	1163.50830	1245.97302	554.24194	1038.52197	1242.52283	576.54254	899.94775	1234.48608	523.85809	918.92310	1220.67993	520.46057	852.66388	1698.04517	784.27435	1482.89575	1789.68835	810.47144	1295.26160	1805.11401	864.89978	1157.15588	1807.23059	934.50299	1057.07434	1766.90393	1015.21490	955.63928	1810.05249	983.28003	936.13794	1799.20276	1040.51514	892.93323	1386.39880	842.02924	983.11090	1645.92041	848.63599	963.67908	1472.75623	633.85242	1015.00714	1585.53052	630.01825	1016.79626	1319.05225	840.84454	675.24341	1356.57251	875.17957	476.66229	1366.04382	875.23547	282.01456	1389.15637	950.12024	71.24316	1447.55884	937.39728	39.58677	1342.43823	1099.92615	64.75719	1706.71143	713.39087	667.14093	1672.83826	662.22601	461.25687	1675.49463	556.70068	303.07782	1639.14380	474.85818	125.89969	1582.30408	428.63651	82.23565	1658.09570	608.18286	38.12742	1535.32361	775.56024	1792.51062	-3357.32104	2845.71289	1034.23340						 
241	2.400	1421.04504	850.75452	1717.39563	1560.09985	890.24677	1700.30896	1450.22974	716.70721	1654.21777	1589.85938	740.97424	1636.51404	1532.15771	674.51038	1512.76294	1539.07251	617.64270	1235.77405	1491.07813	810.72351	1442.84631	1499.28540	862.55664	1272.14355	1608.89758	627.99384	1340.94312	1341.72778	704.84174	1484.88843	1270.56030	635.65558	1296.27234	1263.67749	597.41028	1162.38989	1243.26050	562.28217	1037.73950	1239.39954	585.16205	899.02197	1231.77148	532.14539	917.76440	1218.01697	528.95654	851.84259	1695.09656	791.78516	1481.99561	1786.88391	818.34167	1294.55676	1802.02222	872.42303	1156.11340	1803.85730	941.99426	1055.96716	1763.03601	1022.31958	954.37860	1806.52710	990.82031	935.04083	1795.08875	1047.88171	891.58557	1383.64795	852.76385	982.89624	1643.11353	858.64764	963.08771	1468.84021	643.34399	1014.18292	1581.89990	639.99506	1015.53271	1316.60339	849.44159	674.37488	1354.15234	880.76733	475.26517	1366.79443	880.00610	280.39429	1387.77002	953.90320	71.68269	1446.84497	940.98853	42.43043	1339.11133	1104.10327	57.07093	1704.93933	721.69739	667.03174	1672.50989	670.04492	461.36102	1675.04810	561.63116	305.02835	1639.70190	476.85037	129.31068	1582.57947	430.17270	86.37888	1658.52197	608.45605	38.18961	1532.38708	782.55829	1791.71692	-3360.31519	2845.25586	1034.12415						 
